# xmcd
#
# Track frame offsets: 
#        150
#        27670
#        74998
#        115720
#        142041
#        152106
#        193133
#        207483
#        236915
#        263736
#
# Disc length: 4013 seconds
#
# Revision: 1
# Processed by: cddbd v1.5.2PL0 Copyright (c) Steve Scherf et al.
# Submitted via: ExactAudioCopy v1.0b3
#
DISCID=a30fab0a
DTITLE=Алексей Козлов - Посвящения литераторам
DYEAR=2012
DGENRE=Jazz
TTITLE0=Незнакомка (She is a Stranger)
TTITLE1=Зависть (Envy)
TTITLE2=Искушение (Temptation)
TTITLE3=Некрасивая девочка (Ugly Girl)
TTITLE4=1984 (1984)
TTITLE5=Примирение братьев (Brother's Reconcillation)
TTITLE6=Мечта Джона Рескина (John Ruskin Dream)
TTITLE7=Свет на пути (Light on the Pass)
TTITLE8=Некрасивая девочка {II версия} (Ugly Girl {Alternate version})
TTITLE9=Бармалей (Barmaley)
EXTD=YEAR: 2012
EXTT0=
EXTT1=
EXTT2=
EXTT3=
EXTT4=
EXTT5=
EXTT6=
EXTT7=
EXTT8=
EXTT9=
PLAYORDER=
